<svg width="50" height="50" viewBox="0 0 50 50" fill="none" xmlns="http://www.w3.org/2000/svg">
  <g fill="#fbbf24">
    <!-- Horse head -->
    <path d="M25 10 C30 10, 35 15, 35 20 C35 25, 30 30, 25 30 C20 30, 15 25, 15 20 C15 15, 20 10, 25 10 Z"/>
    
    <!-- Left wing -->
    <path d="M15 18 C10 15, 5 18, 8 23 C12 28, 18 25, 20 22 C18 20, 16 19, 15 18 Z"/>
    
    <!-- Right wing -->
    <path d="M35 18 C40 15, 45 18, 42 23 C38 28, 32 25, 30 22 C32 20, 34 19, 35 18 Z"/>
    
    <!-- Body -->
    <path d="M25 30 C25 30, 20 35, 18 40 C16 45, 20 47, 25 45 C30 47, 34 45, 32 40 C30 35, 25 30, 25 30 Z"/>
    
    <!-- Mane -->
    <path d="M20 15 C18 12, 22 8, 25 12 C28 8, 32 12, 30 15 C28 13, 22 13, 20 15 Z"/>
  </g>
</svg> 